<?xml version="1.0" standalone="no"?>
<!DOCTYPE svg PUBLIC "-//W3C//DTD SVG 20010904//EN"
 "http://www.w3.org/TR/2001/REC-SVG-20010904/DTD/svg10.dtd">
<svg version="1.0" xmlns="http://www.w3.org/2000/svg"
 width="24.000000pt" height="24.000000pt" viewBox="0 0 24.000000 24.000000"
 preserveAspectRatio="xMidYMid meet">

<g transform="translate(0.000000,24.000000) scale(0.100000,-0.100000)"
fill="#000000" stroke="none">
<path d="M90 190 c0 -21 -20 -40 -42 -40 -21 0 -24 -16 -5 -23 9 -4 8 -8 -3
-16 -13 -10 -13 -12 0 -22 11 -8 12 -12 3 -16 -20 -7 -15 -23 6 -23 10 0 24
-7 31 -15 7 -8 25 -15 40 -15 15 0 33 7 40 15 7 8 21 15 31 15 21 0 26 16 7
23 -10 4 -9 8 2 16 13 10 13 12 0 22 -11 8 -12 12 -2 16 18 7 15 23 -6 23 -22
0 -42 19 -42 40 0 12 -9 17 -30 17 -21 0 -30 -5 -30 -17z m71 -64 c14 -29 5
-72 -16 -80 -12 -4 -15 4 -15 39 0 25 -4 45 -10 45 -5 0 -10 -20 -10 -45 0
-35 -3 -43 -15 -39 -21 8 -30 51 -16 80 15 34 67 34 82 0z"/>
</g>
</svg>
