<?xml version="1.0" standalone="no"?>
<!DOCTYPE svg PUBLIC "-//W3C//DTD SVG 20010904//EN"
 "http://www.w3.org/TR/2001/REC-SVG-20010904/DTD/svg10.dtd">
<svg version="1.0" xmlns="http://www.w3.org/2000/svg"
 width="50.000000pt" height="50.000000pt" viewBox="0 0 50.000000 50.000000"
 preserveAspectRatio="xMidYMid meet">

<g transform="translate(0.000000,50.000000) scale(0.100000,-0.100000)"
fill="#000000" stroke="none">
<path d="M250 473 c0 -5 18 -19 40 -33 90 -55 105 -175 32 -254 -76 -81 -205
-70 -262 24 -14 22 -28 40 -32 40 -26 1 14 -114 55 -159 33 -36 115 -71 167
-71 52 0 134 35 167 71 34 37 63 110 63 159 0 52 -35 134 -71 167 -45 41 -160
81 -159 56z m145 -77 c81 -82 87 -198 12 -283 -83 -94 -213 -97 -303 -8 -53
54 -57 73 -8 40 65 -44 141 -45 205 -2 91 61 114 173 54 261 -33 49 -14 45 40
-8z"/>
</g>
</svg>
