<?xml version="1.0" standalone="no"?>
<!DOCTYPE svg PUBLIC "-//W3C//DTD SVG 20010904//EN" "http://www.w3.org/TR/2001/REC-SVG-20010904/DTD/svg10.dtd">
<svg version="1.0" xmlns="http://www.w3.org/2000/svg" width="48.000000pt" height="48.000000pt"
    viewBox="0 0 48.000000 48.000000" preserveAspectRatio="xMidYMid meet">

    <g transform="translate(0.000000,48.000000) scale(0.100000,-0.100000)" fill="#000000" stroke="none">
        <path d="M187 419 c-5 -17 -11 -20 -34 -15 -40 9 -87 -39 -77 -78 5 -22 3 -28
-15 -33 -18 -4 -21 -13 -21 -53 0 -40 3 -49 21 -53 18 -5 20 -11 15 -33 -10
-39 37 -87 77 -78 23 5 29 2 34 -15 4 -18 13 -21 53 -21 40 0 49 3 53 21 5 17
11 20 34 15 40 -9 87 39 78 77 -5 20 -2 29 14 39 30 19 30 93 0 101 -18 5 -20
11 -15 33 10 39 -37 87 -77 78 -23 -5 -29 -2 -34 15 -4 18 -13 21 -53 21 -40
0 -49 -3 -53 -21z m83 -28 c7 -14 23 -21 53 -23 42 -3 42 -3 45 -45 2 -30 9
-46 23 -53 10 -6 19 -19 19 -30 0 -11 -9 -24 -19 -30 -14 -7 -21 -23 -23 -53
-3 -42 -3 -42 -45 -45 -30 -2 -46 -9 -53 -23 -14 -25 -46 -25 -60 0 -7 14 -23
21 -53 23 -42 3 -42 3 -45 45 -2 30 -9 46 -23 53 -25 14 -25 46 0 60 14 7 21
23 23 53 3 42 3 42 45 45 30 2 46 9 53 23 6 10 19 19 30 19 11 0 24 -9 30 -19z" />
        <path d="M195 351 c-45 -20 -70 -60 -70 -112 0 -42 5 -53 33 -81 47 -48 117
-48 164 0 28 28 33 39 33 82 0 42 -5 54 -31 81 -33 33 -92 46 -129 30z m17
-70 c-5 -3 -15 -19 -23 -35 -20 -42 -39 -45 -39 -6 0 22 9 41 32 63 l33 32 3
-24 c2 -13 0 -26 -6 -30z m102 7 c19 -27 22 -81 4 -76 -7 3 -19 18 -27 34 -8
16 -18 31 -23 32 -4 2 -8 15 -8 28 0 21 3 23 19 14 11 -5 27 -20 35 -32z m-58
-39 c10 -17 -13 -36 -27 -22 -12 12 -4 33 11 33 5 0 12 -5 16 -11z m41 -62
c12 -12 -26 -37 -57 -37 -31 0 -66 23 -57 37 7 12 102 11 114 0z" />
    </g>
</svg>