<?xml version="1.0" standalone="no"?>
<!DOCTYPE svg PUBLIC "-//W3C//DTD SVG 20010904//EN"
 "http://www.w3.org/TR/2001/REC-SVG-20010904/DTD/svg10.dtd">
<svg version="1.0" xmlns="http://www.w3.org/2000/svg"
 width="201.000000pt" height="235.000000pt" viewBox="0 0 201.000000 235.000000" class="popup-svg log-out-popup"
 preserveAspectRatio="xMidYMid meet">
<metadata>
Created by potrace 1.16, written by Peter Selinger 2001-2019
</metadata>
<g transform="translate(0.000000,235.000000) scale(0.100000,-0.100000)" stroke="none">
<path d="M611 2239 c-89 -18 -182 -95 -222 -184 -31 -68 -39 -236 -14 -284 22
-44 75 -66 120 -51 59 19 69 41 75 152 5 97 6 101 38 129 l32 29 460 0 c335 0
466 -3 485 -12 57 -26 55 -1 55 -838 0 -702 -2 -774 -17 -800 -9 -16 -27 -33
-40 -39 -16 -7 -174 -11 -483 -11 l-460 0 -31 28 c-31 28 -32 32 -38 129 -5
88 -9 105 -30 127 -31 33 -70 41 -114 22 -52 -21 -67 -58 -67 -165 0 -157 63
-267 189 -328 l56 -28 500 0 500 0 57 27 c75 35 141 104 167 174 21 54 21 71
21 864 0 793 0 810 -21 864 -26 70 -92 139 -167 174 l-57 27 -475 2 c-261 1
-495 -3 -519 -8z"/>
<path d="M510 1584 c-167 -137 -323 -281 -340 -314 -26 -52 -26 -129 0 -180
23 -45 315 -304 368 -327 46 -19 97 -2 123 41 39 64 21 107 -87 196 l-77 65
429 5 c470 5 459 4 489 66 19 40 19 48 0 88 -30 62 -19 61 -489 66 l-429 5 86
74 c93 78 111 110 95 166 -12 44 -40 67 -90 72 -37 4 -49 1 -78 -23z"/>
</g>
</svg>
