<?xml version="1.0" standalone="no"?>
<!DOCTYPE svg PUBLIC "-//W3C//DTD SVG 20010904//EN"
 "http://www.w3.org/TR/2001/REC-SVG-20010904/DTD/svg10.dtd">
<svg version="1.0" xmlns="http://www.w3.org/2000/svg"
 width="512.000000pt" height="512.000000pt" viewBox="0 0 512.000000 512.000000"
 preserveAspectRatio="xMidYMid meet" class="popup-svg">
<metadata>
Created by potrace 1.16, written by Peter Selinger 2001-2019
</metadata>
<g transform="translate(0.000000,512.000000) scale(0.100000,-0.100000)" stroke="none">
<path d="M2453 4991 c-89 -32 -156 -98 -192 -188 -11 -27 -21 -33 -64 -44
-310 -73 -613 -254 -831 -499 -32 -36 -65 -75 -74 -88 -15 -23 -17 -22 -271
231 -141 140 -270 262 -288 271 -45 22 -135 21 -182 -3 -71 -37 -121 -115
-121 -190 0 -79 12 -95 330 -416 l307 -310 -25 -70 c-13 -38 -36 -122 -50
-185 -25 -113 -25 -124 -31 -670 -7 -634 1 -583 -103 -672 -254 -217 -361
-379 -410 -618 -16 -79 -19 -127 -16 -286 l3 -190 37 -75 c46 -93 112 -158
206 -202 l67 -32 494 -5 493 -5 23 -60 c114 -304 352 -506 660 -560 102 -18
175 -19 265 -5 317 50 563 250 681 553 l28 72 338 3 338 2 250 -249 c137 -137
264 -256 280 -264 89 -44 189 -25 253 48 55 63 70 124 47 201 -15 52 -29 70
-175 218 l-158 161 29 35 c17 19 44 64 62 100 l32 65 -1 225 c0 259 -11 316
-88 475 -70 143 -144 231 -334 393 -104 89 -96 37 -103 677 -5 528 -6 566 -28
668 -125 606 -564 1082 -1141 1236 -119 32 -115 29 -152 101 -72 140 -236 204
-385 151z m244 -631 c362 -46 672 -245 864 -554 60 -98 103 -200 137 -325 l26
-96 6 -575 c6 -496 9 -583 23 -633 43 -148 117 -254 257 -367 195 -158 248
-260 258 -496 3 -99 2 -133 -8 -139 -8 -5 -450 430 -1348 1328 l-1336 1336 58
75 c245 321 663 496 1063 446z m-439 -3188 c-761 -1 -1389 0 -1397 3 -11 4
-13 30 -9 138 10 230 62 333 251 490 126 105 192 186 234 289 48 119 52 174
53 713 0 275 3 524 7 553 l6 54 1119 -1119 1118 -1118 -1382 -3z"/>
</g>
</svg>
