<?xml version="1.0" encoding="UTF-8"?>
<svg width="700pt" height="700pt" version="1.1" viewBox="0 0 700 700" xmlns="http://www.w3.org/2000/svg" class="popup-svg">
 <path d="m280 140c18.566 0 36.371 7.375 49.496 20.504 13.129 13.125 20.504 30.93 20.504 49.496s-7.375 36.371-20.504 49.496c-13.125 13.129-30.93 20.504-49.496 20.504s-36.371-7.375-49.496-20.504c-13.129-13.125-20.504-30.93-20.504-49.496 0.019531-18.559 7.4023-36.352 20.527-49.473 13.121-13.125 30.914-20.508 49.473-20.527m0-23.332c-24.754 0-48.492 9.832-65.996 27.336s-27.336 41.242-27.336 65.996 9.832 48.492 27.336 65.996 41.242 27.336 65.996 27.336 48.492-9.832 65.996-27.336 27.336-41.242 27.336-65.996-9.832-48.492-27.336-65.996-41.242-27.336-65.996-27.336zm93.332 256.67v-0.003907c12.375 0.015625 24.234 4.9375 32.984 13.684 8.75 8.75 13.668 20.613 13.684 32.984v23.332h-280v-23.332c0.015625-12.371 4.9336-24.234 13.684-32.984 8.75-8.7461 20.609-13.668 32.984-13.684h186.67m0-23.332h-186.67c-18.566 0-36.371 7.375-49.5 20.504-13.125 13.125-20.5 30.93-20.5 49.496v46.668h326.66v-46.668c0-18.566-7.375-36.371-20.5-49.496-13.129-13.129-30.934-20.504-49.5-20.504zm233.33-70h-93.336v-93.332h-23.332v93.332h-93.332v23.332h93.332v93.332h23.332v-93.332h93.332z"/>
</svg>
