<?xml version="1.0" encoding="UTF-8"?>
<svg width="700pt" height="700pt" version="1.1" viewBox="0 0 700 700" xmlns="http://www.w3.org/2000/svg" class="popup-svg">
 <g>
  <path d="m230.36 39.203c25.051 0 49.074 9.9492 66.785 27.664 17.715 17.711 27.664 41.734 27.664 66.785 0 25.051-9.9492 49.074-27.664 66.785-17.711 17.715-41.734 27.664-66.785 27.664s-49.074-9.9492-66.789-27.664c-17.711-17.711-27.66-41.734-27.66-66.785 0-25.051 9.9492-49.074 27.66-66.785 17.715-17.715 41.738-27.664 66.789-27.664m0-39.203c-35.449 0-69.441 14.082-94.508 39.145-25.062 25.066-39.145 59.062-39.145 94.508 0 35.445 14.082 69.441 39.145 94.508 25.066 25.062 59.059 39.145 94.508 39.145 35.445 0 69.441-14.082 94.508-39.145 25.062-25.066 39.145-59.062 39.145-94.508-0.054687-35.43-14.152-69.395-39.207-94.445-25.051-25.055-59.016-39.152-94.445-39.207z"/>
  <path d="m512.09 103.79c18.543 0 36.324 7.3711 49.43 20.492 13.105 13.117 20.461 30.906 20.441 49.449-0.015626 18.543-7.4062 36.32-20.535 49.414-13.133 13.09-30.93 20.426-49.473 20.391-18.543-0.035156-36.312-7.4414-49.391-20.586-13.082-13.141-20.398-30.945-20.348-49.488 0.054687-18.496 7.4414-36.219 20.539-49.277s30.84-20.395 49.336-20.395m0-39.203v0.003906c-28.875 0-56.566 11.469-76.984 31.887s-31.887 48.109-31.887 76.984 11.469 56.566 31.887 76.984 48.109 31.887 76.984 31.887 56.566-11.469 76.984-31.887 31.887-48.109 31.887-76.984-11.469-56.566-31.887-76.984-48.109-31.887-76.984-31.887z"/>
  <path d="m659.55 352.61c-24.758-24.824-58.375-38.781-93.438-38.793h-108.26c-24.734 0.089844-48.945 7.1289-69.871 20.312-26.91-18.262-58.68-28.023-91.203-28.031h-132.64c-43.078-0.089843-84.43 16.934-114.96 47.324-30.414 30.453-47.508 71.727-47.531 114.77v21.734c-0.050782 18.602 7.3125 36.457 20.469 49.609 13.152 13.152 31.008 20.52 49.609 20.465h317.27c13.066 0.039062 25.879-3.5977 36.977-10.492 11.098-6.8984 20.035-16.773 25.785-28.508h189.51c15.137 0 29.656-6.0117 40.359-16.715 10.703-10.707 16.719-25.223 16.719-40.359v-17.062c0.20313-35.344-13.773-69.293-38.797-94.25zm-239.68 137.31v0.003906c0 8.207-3.25 16.078-9.0312 21.902-5.7852 5.8203-13.637 9.1211-21.844 9.1719h-317.27c-8.207-0.050781-16.059-3.3516-21.844-9.1719-5.7852-5.8242-9.0312-13.695-9.0312-21.902v-21.734c0.054688-32.648 13.074-63.934 36.195-86.98 23.125-23.047 54.453-35.961 87.098-35.906h132.84c32.684 0 64.023 12.996 87.113 36.121 23.086 23.129 36.031 54.488 35.977 87.172zm239.27-26v0.003906c0 4.7383-1.8828 9.2852-5.2344 12.637-3.3555 3.3516-7.8984 5.2383-12.641 5.2383h-182.81v-13.609c-0.20312-39.289-14.637-77.172-40.621-106.64 12.215-5.668 25.527-8.582 38.996-8.5312h108.26c24.992-0.27344 49.039 9.5195 66.73 27.172 17.691 17.652 27.535 41.68 27.316 66.672z"/>
 </g>
</svg>
