<?xml version="1.0" standalone="no"?>
<!DOCTYPE svg PUBLIC "-//W3C//DTD SVG 20010904//EN"
 "http://www.w3.org/TR/2001/REC-SVG-20010904/DTD/svg10.dtd">
<svg version="1.0" xmlns="http://www.w3.org/2000/svg"
 width="1000px" height="1000px" viewBox="0 0 900 900"
 preserveAspectRatio="xMidYMid meet" class="popup-svg phone-popup">
<metadata>
Created by potrace 1.16, written by Peter Selinger 2001-2019
</metadata>
<g transform="translate(-150,900) scale(0.100000,-0.100000)" stroke="none" class="phone-popup">
<path d="M3405 7380 c-143 -9 -216 -29 -297 -81 -103 -67 -188 -195 -225 -344
-13 -53 -17 -108 -16 -225 1 -142 4 -169 38 -315 112 -483 281 -977 480 -1408
90 -193 113 -232 239 -400 242 -322 500 -592 801 -836 641 -520 1303 -807
2065 -895 178 -21 416 -21 495 -1 157 41 287 144 349 276 51 108 61 195 60
514 -1 225 -4 280 -18 330 -37 127 -109 228 -205 293 -70 47 -287 134 -541
217 -156 52 -186 59 -279 63 -207 9 -414 -50 -606 -173 -27 -17 -117 -90 -199
-161 -236 -204 -294 -252 -400 -330 l-99 -74 -81 57 c-398 278 -737 600 -1005
951 l-63 83 70 92 c87 115 162 205 325 387 137 153 186 219 234 315 105 208
132 491 68 695 -45 142 -214 590 -256 677 -69 146 -197 245 -354 278 -88 18
-409 26 -580 15z m539 -440 c37 -33 46 -56 204 -495 74 -206 75 -212 75 -305
-1 -115 -33 -226 -91 -316 -22 -32 -103 -131 -182 -219 -79 -88 -166 -188
-194 -223 l-50 -63 -19 38 c-29 55 -159 381 -205 513 -70 197 -131 397 -184
600 -46 180 -50 201 -46 285 5 105 30 164 81 195 30 19 52 20 304 20 l272 0
35 -30z m2502 -2819 c149 -45 291 -94 411 -140 131 -51 127 -40 131 -367 3
-266 3 -271 -19 -298 -12 -16 -37 -35 -55 -42 -90 -38 -518 5 -827 82 -200 51
-487 152 -620 221 l-27 14 177 152 c314 269 364 308 449 349 67 32 169 61 239
67 6 1 69 -17 141 -38z"/>
</g>
</svg>
