<?xml version="1.0" standalone="no"?>
<!DOCTYPE svg PUBLIC "-//W3C//DTD SVG 20010904//EN"
 "http://www.w3.org/TR/2001/REC-SVG-20010904/DTD/svg10.dtd">
<svg version="1.0" xmlns="http://www.w3.org/2000/svg"
 width="98.000000pt" height="67.000000pt" viewBox="0 0 98.000000 67.000000"
 preserveAspectRatio="xMidYMid meet">
<metadata>
Created by potrace 1.16, written by Peter Selinger 2001-2019
</metadata>
<g transform="translate(0.000000,67.000000) scale(0.100000,-0.100000)" stroke="none">
<path d="M479 589 c-28 -28 -19 -76 21 -109 37 -30 38 -43 5 -64 -62 -41 -87
-140 -43 -170 14 -10 44 -16 75 -16 l53 0 0 -54 c0 -57 13 -73 51 -61 16 5 19
17 19 61 l0 54 53 0 c31 0 61 6 75 16 44 30 19 129 -43 170 -33 21 -32 34 5
64 40 33 49 81 21 109 -19 19 -32 21 -146 21 -114 0 -127 -2 -146 -21z m189
-70 c-14 -8 -18 -23 -18 -68 0 -61 8 -77 53 -104 47 -30 32 -37 -78 -37 -110
0 -125 7 -77 37 15 9 33 23 40 32 15 19 16 123 0 139 -9 9 0 12 43 12 41 -1
50 -3 37 -11z"/>
<path d="M194 476 c-3 -8 -4 -25 -2 -38 3 -23 5 -23 133 -23 l130 0 0 35 0 35
-128 3 c-104 2 -128 0 -133 -12z"/>
<path d="M194 326 c-3 -8 -4 -25 -2 -38 3 -22 6 -23 103 -23 l100 0 0 35 0 35
-98 3 c-78 2 -98 0 -103 -12z"/>
<path d="M194 176 c-3 -8 -4 -25 -2 -38 3 -23 5 -23 153 -26 183 -3 195 -1
195 37 0 17 -6 31 -16 35 -9 3 -85 6 -170 6 -125 0 -156 -3 -160 -14z"/>
</g>
</svg>
