<?xml version="1.0" standalone="no"?>
<!DOCTYPE svg PUBLIC "-//W3C//DTD SVG 20010904//EN"
 "http://www.w3.org/TR/2001/REC-SVG-20010904/DTD/svg10.dtd">
<svg version="1.0" xmlns="http://www.w3.org/2000/svg"
 width="182.000000pt" height="172.000000pt" viewBox="0 0 182.000000 172.000000" class="popup-svg"
 preserveAspectRatio="xMidYMid meet">
<metadata>
Created by potrace 1.16, written by Peter Selinger 2001-2019
</metadata>
<g transform="translate(0.000000,172.000000) scale(0.100000,-0.100000)" stroke="none">
<path d="M694 1610 c-42 -17 -54 -49 -54 -140 l0 -85 -44 -23 -44 -24 -70 41
c-122 71 -133 65 -256 -149 -126 -219 -126 -228 -1 -303 l68 -42 0 -48 0 -48
-69 -40 c-125 -72 -125 -85 -3 -296 51 -87 101 -166 111 -175 31 -28 74 -21
152 21 l71 39 43 -25 42 -25 0 -88 c0 -86 1 -89 31 -114 l31 -26 200 0 200 0
29 29 c28 28 29 34 29 118 l0 88 42 22 41 23 69 -40 c72 -42 119 -50 150 -27
26 20 208 342 208 369 0 37 -25 64 -100 108 l-70 41 0 47 0 48 66 38 c81 48
104 72 104 107 0 33 -169 333 -206 367 -36 32 -67 28 -148 -19 l-71 -41 -42
23 -43 24 0 77 c0 151 -11 158 -262 157 -101 0 -193 -4 -204 -9z m292 -217
c-2 -27 1 -65 6 -86 8 -33 16 -41 76 -71 37 -19 82 -46 101 -60 46 -34 81 -33
152 6 32 18 60 30 62 28 13 -18 77 -133 77 -140 0 -4 -24 -22 -53 -38 -29 -16
-59 -37 -66 -46 -9 -11 -14 -54 -15 -142 -2 -146 2 -155 84 -201 28 -15 50
-32 50 -36 0 -5 -18 -40 -40 -77 l-41 -69 -75 44 -76 45 -56 -44 c-32 -25 -75
-52 -97 -61 -66 -27 -85 -52 -85 -105 0 -26 -3 -62 -6 -79 l-7 -32 -81 3 -81
3 -5 76 c-6 87 -16 104 -77 130 -23 10 -66 34 -95 53 -29 20 -64 36 -78 36
-14 0 -51 -15 -82 -34 -42 -25 -59 -31 -66 -23 -17 23 -72 124 -72 134 0 5 19
20 43 33 87 48 87 47 87 192 0 71 -4 138 -10 148 -5 10 -35 33 -65 50 -30 17
-55 36 -55 41 0 15 73 139 82 139 4 0 30 -13 58 -30 63 -37 105 -38 151 -4 19
14 61 39 94 56 33 17 65 38 72 47 7 9 13 47 13 89 l0 72 89 0 89 0 -2 -47z"/>
<path d="M822 993 c-56 -27 -86 -76 -90 -147 -3 -51 0 -66 20 -96 38 -56 82
-80 147 -80 132 0 211 132 148 250 -41 78 -146 112 -225 73z"/>
</g>
</svg>
